<svg width="48" height="45" viewBox="0 0 48 45" fill="none" xmlns="http://www.w3.org/2000/svg">
<path fill-rule="evenodd" clip-rule="evenodd" d="M25.5633 1.173L45.3966 12.2563C45.9788 12.547 46.4685 12.9942 46.8106 13.5478C47.1527 14.1013 47.3337 14.7393 47.3333 15.39V18.75C47.3333 20.36 46.0266 21.6667 44.4166 21.6667H42.6666V40.3333H45C45.6188 40.3333 46.2123 40.5792 46.6499 41.0167C47.0875 41.4543 47.3333 42.0478 47.3333 42.6667C47.3333 43.2855 47.0875 43.879 46.6499 44.3166C46.2123 44.7542 45.6188 45 45 45H2.99996C2.38112 45 1.78763 44.7542 1.35004 44.3166C0.912459 43.879 0.666626 43.2855 0.666626 42.6667C0.666626 42.0478 0.912459 41.4543 1.35004 41.0167C1.78763 40.5792 2.38112 40.3333 2.99996 40.3333H5.33329V21.6667H3.58329C1.97329 21.6667 0.666626 20.36 0.666626 18.75V15.39C0.666626 14.172 1.29663 13.052 2.31396 12.4173L22.4343 1.173C22.9204 0.929865 23.4564 0.803284 24 0.803284C24.5435 0.803284 25.0772 0.929865 25.5633 1.173ZM35.6666 21.6667H12.3333V40.3333H17V26.3333H21.6666V40.3333H26.3333V26.3333H31V40.3333H35.6666V21.6667ZM24 10C23.3811 10 22.7876 10.2458 22.35 10.6834C21.9125 11.121 21.6666 11.7145 21.6666 12.3333C21.6666 12.9522 21.9125 13.5457 22.35 13.9832C22.7876 14.4208 23.3811 14.6667 24 14.6667C24.6188 14.6667 25.2123 14.4208 25.6499 13.9832C26.0875 13.5457 26.3333 12.9522 26.3333 12.3333C26.3333 11.7145 26.0875 11.121 25.6499 10.6834C25.2123 10.2458 24.6188 10 24 10Z" fill="#FFC93E"/>
</svg>
