<svg width="46" height="46" viewBox="0 0 46 46" fill="none" xmlns="http://www.w3.org/2000/svg">
<g opacity="0.5">
<path fill-rule="evenodd" clip-rule="evenodd" d="M23 46C10.2975 46 0 35.7025 0 23C0 10.2975 10.2975 0 23 0C35.7025 0 46 10.2975 46 23C46 35.7025 35.7025 46 23 46ZM30.2077 26.1162C28.3375 24.9763 25.7953 24.1667 23 24.1667C20.2058 24.1667 17.6625 24.9763 15.7923 26.1162C14.8578 26.6878 14.061 27.3587 13.4847 28.0878C12.9177 28.8065 12.5 29.6652 12.5 30.5833C12.5 31.5692 12.9783 32.345 13.6702 32.9003C14.3235 33.4253 15.1857 33.773 16.1015 34.0157C17.9425 34.5033 20.3995 34.6667 23 34.6667C25.6005 34.6667 28.0575 34.5022 29.8985 34.0157C30.8143 33.773 31.6765 33.4253 32.3298 32.9003C33.0205 32.3462 33.5 31.5692 33.5 30.5833C33.5 29.6652 33.0823 28.8065 32.5153 28.0878C31.939 27.3587 31.141 26.6878 30.2077 26.1162ZM27.1248 13.0419C26.0308 11.9479 24.5471 11.3333 23 11.3333C21.4529 11.3333 19.9692 11.9479 18.8752 13.0419C17.7812 14.1358 17.1667 15.6196 17.1667 17.1667C17.1667 18.7138 17.7812 20.1975 18.8752 21.2915C19.9692 22.3854 21.4529 23 23 23C24.5471 23 26.0308 22.3854 27.1248 21.2915C28.2188 20.1975 28.8333 18.7138 28.8333 17.1667C28.8333 15.6196 28.2188 14.1358 27.1248 13.0419Z" fill="white"/>
</g>
</svg>
